<mxfile host="app.diagrams.net" modified="2022-10-14T12:28:06.949Z" agent="5.0 (Macintosh; Intel Mac OS X 10_15_7) AppleWebKit/537.36 (KHTML, like Gecko) Chrome/105.0.0.0 Safari/537.36" etag="YKWUU3qmVXsE13T8WRGl" version="20.4.0" type="github">
  <diagram id="DyasOD2BoD61LlOwKaaN" name="第 1 页">
    <mxGraphModel dx="1137" dy="627" grid="0" gridSize="10" guides="1" tooltips="1" connect="1" arrows="1" fold="1" page="1" pageScale="1" pageWidth="827" pageHeight="1169" math="0" shadow="0">
      <root>
        <mxCell id="0" />
        <mxCell id="1" parent="0" />
        <mxCell id="u8Ia12efMhGryAWkAICv-1" value="" style="ellipse;whiteSpace=wrap;html=1;aspect=fixed;" vertex="1" parent="1">
          <mxGeometry x="120" y="200" width="40" height="40" as="geometry" />
        </mxCell>
        <mxCell id="u8Ia12efMhGryAWkAICv-2" value="" style="ellipse;whiteSpace=wrap;html=1;aspect=fixed;" vertex="1" parent="1">
          <mxGeometry x="240" y="200" width="40" height="40" as="geometry" />
        </mxCell>
        <mxCell id="u8Ia12efMhGryAWkAICv-3" value="" style="ellipse;whiteSpace=wrap;html=1;aspect=fixed;" vertex="1" parent="1">
          <mxGeometry x="360" y="240" width="40" height="40" as="geometry" />
        </mxCell>
        <mxCell id="u8Ia12efMhGryAWkAICv-4" value="" style="ellipse;whiteSpace=wrap;html=1;aspect=fixed;" vertex="1" parent="1">
          <mxGeometry x="120" y="320" width="40" height="40" as="geometry" />
        </mxCell>
        <mxCell id="u8Ia12efMhGryAWkAICv-5" value="" style="ellipse;whiteSpace=wrap;html=1;aspect=fixed;" vertex="1" parent="1">
          <mxGeometry x="240" y="320" width="40" height="40" as="geometry" />
        </mxCell>
        <mxCell id="u8Ia12efMhGryAWkAICv-6" value="" style="ellipse;whiteSpace=wrap;html=1;aspect=fixed;" vertex="1" parent="1">
          <mxGeometry x="480" y="200" width="40" height="40" as="geometry" />
        </mxCell>
        <mxCell id="u8Ia12efMhGryAWkAICv-7" value="" style="ellipse;whiteSpace=wrap;html=1;aspect=fixed;" vertex="1" parent="1">
          <mxGeometry x="480" y="320" width="40" height="40" as="geometry" />
        </mxCell>
        <mxCell id="u8Ia12efMhGryAWkAICv-8" value="" style="ellipse;whiteSpace=wrap;html=1;aspect=fixed;" vertex="1" parent="1">
          <mxGeometry x="610" y="240" width="40" height="40" as="geometry" />
        </mxCell>
        <mxCell id="u8Ia12efMhGryAWkAICv-9" value="" style="ellipse;whiteSpace=wrap;html=1;aspect=fixed;" vertex="1" parent="1">
          <mxGeometry x="360" y="420" width="40" height="40" as="geometry" />
        </mxCell>
        <mxCell id="u8Ia12efMhGryAWkAICv-10" value="" style="ellipse;whiteSpace=wrap;html=1;aspect=fixed;" vertex="1" parent="1">
          <mxGeometry x="280" y="530" width="40" height="40" as="geometry" />
        </mxCell>
        <mxCell id="u8Ia12efMhGryAWkAICv-11" value="" style="ellipse;whiteSpace=wrap;html=1;aspect=fixed;" vertex="1" parent="1">
          <mxGeometry x="450" y="530" width="40" height="40" as="geometry" />
        </mxCell>
        <mxCell id="u8Ia12efMhGryAWkAICv-12" value="" style="endArrow=none;html=1;rounded=0;exitX=0.5;exitY=0;exitDx=0;exitDy=0;" edge="1" parent="1" source="u8Ia12efMhGryAWkAICv-4">
          <mxGeometry width="50" height="50" relative="1" as="geometry">
            <mxPoint x="90" y="290" as="sourcePoint" />
            <mxPoint x="140" y="240" as="targetPoint" />
          </mxGeometry>
        </mxCell>
        <mxCell id="u8Ia12efMhGryAWkAICv-14" value="" style="endArrow=none;html=1;rounded=0;exitX=1;exitY=0.5;exitDx=0;exitDy=0;" edge="1" parent="1" source="u8Ia12efMhGryAWkAICv-1">
          <mxGeometry width="50" height="50" relative="1" as="geometry">
            <mxPoint x="190" y="270" as="sourcePoint" />
            <mxPoint x="240" y="220" as="targetPoint" />
          </mxGeometry>
        </mxCell>
        <mxCell id="u8Ia12efMhGryAWkAICv-15" value="" style="ellipse;whiteSpace=wrap;html=1;aspect=fixed;" vertex="1" parent="1">
          <mxGeometry x="120" y="530" width="40" height="40" as="geometry" />
        </mxCell>
        <mxCell id="u8Ia12efMhGryAWkAICv-16" value="" style="endArrow=none;html=1;rounded=0;entryX=0;entryY=0.5;entryDx=0;entryDy=0;exitX=1;exitY=0.5;exitDx=0;exitDy=0;" edge="1" parent="1" source="u8Ia12efMhGryAWkAICv-4" target="u8Ia12efMhGryAWkAICv-5">
          <mxGeometry width="50" height="50" relative="1" as="geometry">
            <mxPoint x="190" y="410" as="sourcePoint" />
            <mxPoint x="240" y="360" as="targetPoint" />
          </mxGeometry>
        </mxCell>
        <mxCell id="u8Ia12efMhGryAWkAICv-17" value="" style="endArrow=none;html=1;rounded=0;exitX=0.789;exitY=0.054;exitDx=0;exitDy=0;exitPerimeter=0;" edge="1" parent="1" source="u8Ia12efMhGryAWkAICv-4" target="u8Ia12efMhGryAWkAICv-2">
          <mxGeometry width="50" height="50" relative="1" as="geometry">
            <mxPoint x="210" y="290" as="sourcePoint" />
            <mxPoint x="260" y="240" as="targetPoint" />
          </mxGeometry>
        </mxCell>
        <mxCell id="u8Ia12efMhGryAWkAICv-18" value="" style="endArrow=none;html=1;rounded=0;exitX=0;exitY=0.25;exitDx=0;exitDy=0;exitPerimeter=0;" edge="1" parent="1" source="u8Ia12efMhGryAWkAICv-3">
          <mxGeometry width="50" height="50" relative="1" as="geometry">
            <mxPoint x="230" y="270" as="sourcePoint" />
            <mxPoint x="280" y="220" as="targetPoint" />
          </mxGeometry>
        </mxCell>
        <mxCell id="u8Ia12efMhGryAWkAICv-19" value="" style="endArrow=none;html=1;rounded=0;exitX=0.5;exitY=0;exitDx=0;exitDy=0;entryX=0.5;entryY=1;entryDx=0;entryDy=0;" edge="1" parent="1" source="u8Ia12efMhGryAWkAICv-5" target="u8Ia12efMhGryAWkAICv-2">
          <mxGeometry width="50" height="50" relative="1" as="geometry">
            <mxPoint x="210" y="290" as="sourcePoint" />
            <mxPoint x="260" y="240" as="targetPoint" />
          </mxGeometry>
        </mxCell>
        <mxCell id="u8Ia12efMhGryAWkAICv-20" value="" style="endArrow=none;html=1;rounded=0;entryX=0.289;entryY=0.939;entryDx=0;entryDy=0;entryPerimeter=0;" edge="1" parent="1" target="u8Ia12efMhGryAWkAICv-3">
          <mxGeometry width="50" height="50" relative="1" as="geometry">
            <mxPoint x="280" y="340" as="sourcePoint" />
            <mxPoint x="330" y="290" as="targetPoint" />
          </mxGeometry>
        </mxCell>
        <mxCell id="u8Ia12efMhGryAWkAICv-21" value="" style="endArrow=none;html=1;rounded=0;exitX=0.5;exitY=0;exitDx=0;exitDy=0;" edge="1" parent="1" source="u8Ia12efMhGryAWkAICv-9">
          <mxGeometry width="50" height="50" relative="1" as="geometry">
            <mxPoint x="330" y="330" as="sourcePoint" />
            <mxPoint x="380" y="280" as="targetPoint" />
          </mxGeometry>
        </mxCell>
        <mxCell id="u8Ia12efMhGryAWkAICv-22" value="" style="endArrow=none;html=1;rounded=0;exitX=0.5;exitY=0;exitDx=0;exitDy=0;entryX=0.5;entryY=1;entryDx=0;entryDy=0;" edge="1" parent="1" source="u8Ia12efMhGryAWkAICv-10" target="u8Ia12efMhGryAWkAICv-9">
          <mxGeometry width="50" height="50" relative="1" as="geometry">
            <mxPoint x="330" y="510" as="sourcePoint" />
            <mxPoint x="380" y="460" as="targetPoint" />
          </mxGeometry>
        </mxCell>
        <mxCell id="u8Ia12efMhGryAWkAICv-23" value="" style="endArrow=none;html=1;rounded=0;exitX=0.354;exitY=0.061;exitDx=0;exitDy=0;exitPerimeter=0;" edge="1" parent="1" source="u8Ia12efMhGryAWkAICv-11">
          <mxGeometry width="50" height="50" relative="1" as="geometry">
            <mxPoint x="350" y="550" as="sourcePoint" />
            <mxPoint x="380" y="460" as="targetPoint" />
          </mxGeometry>
        </mxCell>
        <mxCell id="u8Ia12efMhGryAWkAICv-24" value="" style="endArrow=none;html=1;rounded=0;entryX=0;entryY=0.5;entryDx=0;entryDy=0;" edge="1" parent="1" target="u8Ia12efMhGryAWkAICv-11">
          <mxGeometry width="50" height="50" relative="1" as="geometry">
            <mxPoint x="320" y="550" as="sourcePoint" />
            <mxPoint x="370" y="500" as="targetPoint" />
          </mxGeometry>
        </mxCell>
        <mxCell id="u8Ia12efMhGryAWkAICv-25" value="" style="endArrow=none;html=1;rounded=0;entryX=0;entryY=0.5;entryDx=0;entryDy=0;" edge="1" parent="1" target="u8Ia12efMhGryAWkAICv-10">
          <mxGeometry width="50" height="50" relative="1" as="geometry">
            <mxPoint x="160" y="550" as="sourcePoint" />
            <mxPoint x="210" y="500" as="targetPoint" />
          </mxGeometry>
        </mxCell>
        <mxCell id="u8Ia12efMhGryAWkAICv-26" value="" style="endArrow=none;html=1;rounded=0;entryX=0.5;entryY=1;entryDx=0;entryDy=0;" edge="1" parent="1" target="u8Ia12efMhGryAWkAICv-7">
          <mxGeometry width="50" height="50" relative="1" as="geometry">
            <mxPoint x="400" y="430" as="sourcePoint" />
            <mxPoint x="450" y="380" as="targetPoint" />
          </mxGeometry>
        </mxCell>
        <mxCell id="u8Ia12efMhGryAWkAICv-27" value="" style="endArrow=none;html=1;rounded=0;entryX=-0.068;entryY=0.639;entryDx=0;entryDy=0;entryPerimeter=0;" edge="1" parent="1" target="u8Ia12efMhGryAWkAICv-6">
          <mxGeometry width="50" height="50" relative="1" as="geometry">
            <mxPoint x="400" y="250" as="sourcePoint" />
            <mxPoint x="450" y="200" as="targetPoint" />
          </mxGeometry>
        </mxCell>
        <mxCell id="u8Ia12efMhGryAWkAICv-28" value="" style="endArrow=none;html=1;rounded=0;exitX=0.5;exitY=0;exitDx=0;exitDy=0;" edge="1" parent="1" source="u8Ia12efMhGryAWkAICv-7">
          <mxGeometry width="50" height="50" relative="1" as="geometry">
            <mxPoint x="450" y="290" as="sourcePoint" />
            <mxPoint x="500" y="240" as="targetPoint" />
          </mxGeometry>
        </mxCell>
        <mxCell id="u8Ia12efMhGryAWkAICv-29" value="" style="endArrow=none;html=1;rounded=0;entryX=0.332;entryY=1.011;entryDx=0;entryDy=0;entryPerimeter=0;" edge="1" parent="1" target="u8Ia12efMhGryAWkAICv-5">
          <mxGeometry width="50" height="50" relative="1" as="geometry">
            <mxPoint x="140" y="530" as="sourcePoint" />
            <mxPoint x="190" y="480" as="targetPoint" />
          </mxGeometry>
        </mxCell>
        <mxCell id="u8Ia12efMhGryAWkAICv-30" value="" style="endArrow=none;html=1;rounded=0;entryX=0;entryY=1;entryDx=0;entryDy=0;" edge="1" parent="1" target="u8Ia12efMhGryAWkAICv-8">
          <mxGeometry width="50" height="50" relative="1" as="geometry">
            <mxPoint x="520" y="340" as="sourcePoint" />
            <mxPoint x="570" y="290" as="targetPoint" />
          </mxGeometry>
        </mxCell>
        <mxCell id="u8Ia12efMhGryAWkAICv-31" value="" style="endArrow=none;html=1;rounded=0;entryX=0.5;entryY=1;entryDx=0;entryDy=0;" edge="1" parent="1" target="u8Ia12efMhGryAWkAICv-7">
          <mxGeometry width="50" height="50" relative="1" as="geometry">
            <mxPoint x="475" y="530" as="sourcePoint" />
            <mxPoint x="525" y="480" as="targetPoint" />
          </mxGeometry>
        </mxCell>
        <mxCell id="u8Ia12efMhGryAWkAICv-32" value="A" style="text;html=1;strokeColor=none;fillColor=none;align=center;verticalAlign=middle;whiteSpace=wrap;rounded=0;" vertex="1" parent="1">
          <mxGeometry x="110" y="205" width="60" height="30" as="geometry" />
        </mxCell>
        <mxCell id="u8Ia12efMhGryAWkAICv-33" value="B&lt;span style=&quot;color: rgba(0, 0, 0, 0); font-family: monospace; font-size: 0px; text-align: start;&quot;&gt;%3CmxGraphModel%3E%3Croot%3E%3CmxCell%20id%3D%220%22%2F%3E%3CmxCell%20id%3D%221%22%20parent%3D%220%22%2F%3E%3CmxCell%20id%3D%222%22%20value%3D%22A%22%20style%3D%22text%3Bhtml%3D1%3BstrokeColor%3Dnone%3BfillColor%3Dnone%3Balign%3Dcenter%3BverticalAlign%3Dmiddle%3BwhiteSpace%3Dwrap%3Brounded%3D0%3B%22%20vertex%3D%221%22%20parent%3D%221%22%3E%3CmxGeometry%20x%3D%22110%22%20y%3D%22205%22%20width%3D%2260%22%20height%3D%2230%22%20as%3D%22geometry%22%2F%3E%3C%2FmxCell%3E%3C%2Froot%3E%3C%2FmxGraphModel%3E&lt;/span&gt;" style="text;html=1;strokeColor=none;fillColor=none;align=center;verticalAlign=middle;whiteSpace=wrap;rounded=0;" vertex="1" parent="1">
          <mxGeometry x="230" y="205" width="60" height="30" as="geometry" />
        </mxCell>
        <mxCell id="u8Ia12efMhGryAWkAICv-34" value="C" style="text;html=1;strokeColor=none;fillColor=none;align=center;verticalAlign=middle;whiteSpace=wrap;rounded=0;" vertex="1" parent="1">
          <mxGeometry x="110" y="325" width="60" height="30" as="geometry" />
        </mxCell>
        <mxCell id="u8Ia12efMhGryAWkAICv-35" value="D" style="text;html=1;strokeColor=none;fillColor=none;align=center;verticalAlign=middle;whiteSpace=wrap;rounded=0;" vertex="1" parent="1">
          <mxGeometry x="230" y="325" width="60" height="30" as="geometry" />
        </mxCell>
        <mxCell id="u8Ia12efMhGryAWkAICv-36" value="E" style="text;html=1;strokeColor=none;fillColor=none;align=center;verticalAlign=middle;whiteSpace=wrap;rounded=0;" vertex="1" parent="1">
          <mxGeometry x="350" y="245" width="60" height="30" as="geometry" />
        </mxCell>
        <mxCell id="u8Ia12efMhGryAWkAICv-37" value="F" style="text;html=1;strokeColor=none;fillColor=none;align=center;verticalAlign=middle;whiteSpace=wrap;rounded=0;" vertex="1" parent="1">
          <mxGeometry x="110" y="535" width="60" height="30" as="geometry" />
        </mxCell>
        <mxCell id="u8Ia12efMhGryAWkAICv-38" value="G&lt;span style=&quot;color: rgba(0, 0, 0, 0); font-family: monospace; font-size: 0px; text-align: start;&quot;&gt;%3CmxGraphModel%3E%3Croot%3E%3CmxCell%20id%3D%220%22%2F%3E%3CmxCell%20id%3D%221%22%20parent%3D%220%22%2F%3E%3CmxCell%20id%3D%222%22%20value%3D%22A%22%20style%3D%22text%3Bhtml%3D1%3BstrokeColor%3Dnone%3BfillColor%3Dnone%3Balign%3Dcenter%3BverticalAlign%3Dmiddle%3BwhiteSpace%3Dwrap%3Brounded%3D0%3B%22%20vertex%3D%221%22%20parent%3D%221%22%3E%3CmxGeometry%20x%3D%22110%22%20y%3D%22205%22%20width%3D%2260%22%20height%3D%2230%22%20as%3D%22geometry%22%2F%3E%3C%2FmxCell%3E%3C%2Froot%3E%3C%2FmxGraphModel%3E&lt;/span&gt;" style="text;html=1;strokeColor=none;fillColor=none;align=center;verticalAlign=middle;whiteSpace=wrap;rounded=0;" vertex="1" parent="1">
          <mxGeometry x="270" y="535" width="60" height="30" as="geometry" />
        </mxCell>
        <mxCell id="u8Ia12efMhGryAWkAICv-39" value="H" style="text;html=1;strokeColor=none;fillColor=none;align=center;verticalAlign=middle;whiteSpace=wrap;rounded=0;" vertex="1" parent="1">
          <mxGeometry x="350" y="425" width="60" height="30" as="geometry" />
        </mxCell>
        <mxCell id="u8Ia12efMhGryAWkAICv-40" value="I" style="text;html=1;strokeColor=none;fillColor=none;align=center;verticalAlign=middle;whiteSpace=wrap;rounded=0;" vertex="1" parent="1">
          <mxGeometry x="440" y="535" width="60" height="30" as="geometry" />
        </mxCell>
        <mxCell id="u8Ia12efMhGryAWkAICv-41" value="J" style="text;html=1;strokeColor=none;fillColor=none;align=center;verticalAlign=middle;whiteSpace=wrap;rounded=0;" vertex="1" parent="1">
          <mxGeometry x="470" y="325" width="60" height="30" as="geometry" />
        </mxCell>
        <mxCell id="u8Ia12efMhGryAWkAICv-42" value="K" style="text;html=1;strokeColor=none;fillColor=none;align=center;verticalAlign=middle;whiteSpace=wrap;rounded=0;" vertex="1" parent="1">
          <mxGeometry x="470" y="205" width="60" height="30" as="geometry" />
        </mxCell>
        <mxCell id="u8Ia12efMhGryAWkAICv-43" value="M" style="text;html=1;strokeColor=none;fillColor=none;align=center;verticalAlign=middle;whiteSpace=wrap;rounded=0;" vertex="1" parent="1">
          <mxGeometry x="600" y="245" width="60" height="30" as="geometry" />
        </mxCell>
        <mxCell id="u8Ia12efMhGryAWkAICv-44" value="" style="ellipse;whiteSpace=wrap;html=1;aspect=fixed;" vertex="1" parent="1">
          <mxGeometry x="80" y="640" width="40" height="40" as="geometry" />
        </mxCell>
        <mxCell id="u8Ia12efMhGryAWkAICv-45" value="A" style="text;html=1;strokeColor=none;fillColor=none;align=center;verticalAlign=middle;whiteSpace=wrap;rounded=0;" vertex="1" parent="1">
          <mxGeometry x="70" y="645" width="60" height="30" as="geometry" />
        </mxCell>
        <mxCell id="u8Ia12efMhGryAWkAICv-46" value="" style="ellipse;whiteSpace=wrap;html=1;aspect=fixed;" vertex="1" parent="1">
          <mxGeometry x="180" y="640" width="40" height="40" as="geometry" />
        </mxCell>
        <mxCell id="u8Ia12efMhGryAWkAICv-47" value="C" style="text;html=1;strokeColor=none;fillColor=none;align=center;verticalAlign=middle;whiteSpace=wrap;rounded=0;" vertex="1" parent="1">
          <mxGeometry x="170" y="645" width="60" height="30" as="geometry" />
        </mxCell>
        <mxCell id="u8Ia12efMhGryAWkAICv-48" value="" style="endArrow=classic;html=1;rounded=0;entryX=0.167;entryY=0.5;entryDx=0;entryDy=0;entryPerimeter=0;" edge="1" parent="1" target="u8Ia12efMhGryAWkAICv-47">
          <mxGeometry width="50" height="50" relative="1" as="geometry">
            <mxPoint x="120" y="660" as="sourcePoint" />
            <mxPoint x="170" y="610" as="targetPoint" />
          </mxGeometry>
        </mxCell>
        <mxCell id="u8Ia12efMhGryAWkAICv-49" value="" style="ellipse;whiteSpace=wrap;html=1;aspect=fixed;" vertex="1" parent="1">
          <mxGeometry x="280" y="640" width="40" height="40" as="geometry" />
        </mxCell>
        <mxCell id="u8Ia12efMhGryAWkAICv-50" value="D" style="text;html=1;strokeColor=none;fillColor=none;align=center;verticalAlign=middle;whiteSpace=wrap;rounded=0;" vertex="1" parent="1">
          <mxGeometry x="270" y="645" width="60" height="30" as="geometry" />
        </mxCell>
        <mxCell id="u8Ia12efMhGryAWkAICv-51" value="" style="endArrow=classic;html=1;rounded=0;entryX=0.167;entryY=0.5;entryDx=0;entryDy=0;entryPerimeter=0;" edge="1" parent="1" target="u8Ia12efMhGryAWkAICv-50">
          <mxGeometry width="50" height="50" relative="1" as="geometry">
            <mxPoint x="220" y="660" as="sourcePoint" />
            <mxPoint x="270" y="610" as="targetPoint" />
          </mxGeometry>
        </mxCell>
        <mxCell id="u8Ia12efMhGryAWkAICv-52" value="" style="ellipse;whiteSpace=wrap;html=1;aspect=fixed;" vertex="1" parent="1">
          <mxGeometry x="380" y="640" width="40" height="40" as="geometry" />
        </mxCell>
        <mxCell id="u8Ia12efMhGryAWkAICv-53" value="E" style="text;html=1;strokeColor=none;fillColor=none;align=center;verticalAlign=middle;whiteSpace=wrap;rounded=0;" vertex="1" parent="1">
          <mxGeometry x="370" y="645" width="60" height="30" as="geometry" />
        </mxCell>
        <mxCell id="u8Ia12efMhGryAWkAICv-54" value="" style="endArrow=classic;html=1;rounded=0;entryX=0.167;entryY=0.5;entryDx=0;entryDy=0;entryPerimeter=0;" edge="1" parent="1" target="u8Ia12efMhGryAWkAICv-53">
          <mxGeometry width="50" height="50" relative="1" as="geometry">
            <mxPoint x="320" y="660" as="sourcePoint" />
            <mxPoint x="370" y="610" as="targetPoint" />
          </mxGeometry>
        </mxCell>
        <mxCell id="u8Ia12efMhGryAWkAICv-55" value="" style="ellipse;whiteSpace=wrap;html=1;aspect=fixed;" vertex="1" parent="1">
          <mxGeometry x="480" y="640" width="40" height="40" as="geometry" />
        </mxCell>
        <mxCell id="u8Ia12efMhGryAWkAICv-56" value="H" style="text;html=1;strokeColor=none;fillColor=none;align=center;verticalAlign=middle;whiteSpace=wrap;rounded=0;" vertex="1" parent="1">
          <mxGeometry x="470" y="645" width="60" height="30" as="geometry" />
        </mxCell>
        <mxCell id="u8Ia12efMhGryAWkAICv-57" value="" style="endArrow=classic;html=1;rounded=0;entryX=0.167;entryY=0.5;entryDx=0;entryDy=0;entryPerimeter=0;" edge="1" parent="1" target="u8Ia12efMhGryAWkAICv-56">
          <mxGeometry width="50" height="50" relative="1" as="geometry">
            <mxPoint x="420" y="660" as="sourcePoint" />
            <mxPoint x="470" y="610" as="targetPoint" />
          </mxGeometry>
        </mxCell>
        <mxCell id="u8Ia12efMhGryAWkAICv-58" value="" style="ellipse;whiteSpace=wrap;html=1;aspect=fixed;" vertex="1" parent="1">
          <mxGeometry x="580" y="640" width="40" height="40" as="geometry" />
        </mxCell>
        <mxCell id="u8Ia12efMhGryAWkAICv-59" value="G" style="text;html=1;strokeColor=none;fillColor=none;align=center;verticalAlign=middle;whiteSpace=wrap;rounded=0;" vertex="1" parent="1">
          <mxGeometry x="570" y="645" width="60" height="30" as="geometry" />
        </mxCell>
        <mxCell id="u8Ia12efMhGryAWkAICv-60" value="" style="endArrow=classic;html=1;rounded=0;entryX=0.167;entryY=0.5;entryDx=0;entryDy=0;entryPerimeter=0;" edge="1" parent="1" target="u8Ia12efMhGryAWkAICv-59">
          <mxGeometry width="50" height="50" relative="1" as="geometry">
            <mxPoint x="520" y="660" as="sourcePoint" />
            <mxPoint x="570" y="610" as="targetPoint" />
          </mxGeometry>
        </mxCell>
        <mxCell id="u8Ia12efMhGryAWkAICv-61" value="" style="ellipse;whiteSpace=wrap;html=1;aspect=fixed;" vertex="1" parent="1">
          <mxGeometry x="680" y="640" width="40" height="40" as="geometry" />
        </mxCell>
        <mxCell id="u8Ia12efMhGryAWkAICv-62" value="F" style="text;html=1;strokeColor=none;fillColor=none;align=center;verticalAlign=middle;whiteSpace=wrap;rounded=0;" vertex="1" parent="1">
          <mxGeometry x="670" y="645" width="60" height="30" as="geometry" />
        </mxCell>
        <mxCell id="u8Ia12efMhGryAWkAICv-63" value="" style="endArrow=classic;html=1;rounded=0;entryX=0.167;entryY=0.5;entryDx=0;entryDy=0;entryPerimeter=0;" edge="1" parent="1" target="u8Ia12efMhGryAWkAICv-62">
          <mxGeometry width="50" height="50" relative="1" as="geometry">
            <mxPoint x="620" y="660" as="sourcePoint" />
            <mxPoint x="670" y="610" as="targetPoint" />
          </mxGeometry>
        </mxCell>
        <mxCell id="u8Ia12efMhGryAWkAICv-64" value="" style="shape=curlyBracket;whiteSpace=wrap;html=1;rounded=1;flipH=1;direction=north;" vertex="1" parent="1">
          <mxGeometry x="80" y="680" width="640" height="20" as="geometry" />
        </mxCell>
        <mxCell id="u8Ia12efMhGryAWkAICv-65" value="" style="ellipse;whiteSpace=wrap;html=1;aspect=fixed;" vertex="1" parent="1">
          <mxGeometry x="226" y="798" width="40" height="40" as="geometry" />
        </mxCell>
        <mxCell id="u8Ia12efMhGryAWkAICv-66" value="" style="ellipse;whiteSpace=wrap;html=1;aspect=fixed;" vertex="1" parent="1">
          <mxGeometry x="360" y="796" width="40" height="40" as="geometry" />
        </mxCell>
        <mxCell id="u8Ia12efMhGryAWkAICv-67" value="" style="ellipse;whiteSpace=wrap;html=1;aspect=fixed;" vertex="1" parent="1">
          <mxGeometry x="230" y="937" width="40" height="40" as="geometry" />
        </mxCell>
        <mxCell id="u8Ia12efMhGryAWkAICv-68" value="" style="ellipse;whiteSpace=wrap;html=1;aspect=fixed;" vertex="1" parent="1">
          <mxGeometry x="360" y="937" width="40" height="40" as="geometry" />
        </mxCell>
        <mxCell id="u8Ia12efMhGryAWkAICv-69" value="" style="endArrow=none;html=1;rounded=0;exitX=0.75;exitY=0;exitDx=0;exitDy=0;entryX=0;entryY=1;entryDx=0;entryDy=0;" edge="1" parent="1" source="u8Ia12efMhGryAWkAICv-76" target="u8Ia12efMhGryAWkAICv-78">
          <mxGeometry width="50" height="50" relative="1" as="geometry">
            <mxPoint x="196" y="888" as="sourcePoint" />
            <mxPoint x="246" y="838" as="targetPoint" />
          </mxGeometry>
        </mxCell>
        <mxCell id="u8Ia12efMhGryAWkAICv-70" value="" style="endArrow=none;html=1;rounded=0;exitX=0.75;exitY=1;exitDx=0;exitDy=0;" edge="1" parent="1" source="u8Ia12efMhGryAWkAICv-74" target="u8Ia12efMhGryAWkAICv-79">
          <mxGeometry width="50" height="50" relative="1" as="geometry">
            <mxPoint x="296" y="868" as="sourcePoint" />
            <mxPoint x="346" y="818" as="targetPoint" />
          </mxGeometry>
        </mxCell>
        <mxCell id="u8Ia12efMhGryAWkAICv-71" value="" style="endArrow=none;html=1;rounded=0;entryX=0;entryY=0;entryDx=0;entryDy=0;exitX=1;exitY=1;exitDx=0;exitDy=0;" edge="1" parent="1" source="u8Ia12efMhGryAWkAICv-78" target="u8Ia12efMhGryAWkAICv-68">
          <mxGeometry width="50" height="50" relative="1" as="geometry">
            <mxPoint x="302" y="1022" as="sourcePoint" />
            <mxPoint x="352" y="972" as="targetPoint" />
          </mxGeometry>
        </mxCell>
        <mxCell id="u8Ia12efMhGryAWkAICv-73" value="" style="endArrow=none;html=1;rounded=0;entryX=0;entryY=1;entryDx=0;entryDy=0;" edge="1" parent="1" source="u8Ia12efMhGryAWkAICv-79" target="u8Ia12efMhGryAWkAICv-66">
          <mxGeometry width="50" height="50" relative="1" as="geometry">
            <mxPoint x="330" y="876" as="sourcePoint" />
            <mxPoint x="366" y="838" as="targetPoint" />
          </mxGeometry>
        </mxCell>
        <mxCell id="u8Ia12efMhGryAWkAICv-74" value="E" style="text;html=1;strokeColor=none;fillColor=none;align=center;verticalAlign=middle;whiteSpace=wrap;rounded=0;" vertex="1" parent="1">
          <mxGeometry x="216" y="803" width="60" height="30" as="geometry" />
        </mxCell>
        <mxCell id="u8Ia12efMhGryAWkAICv-75" value="B&lt;span style=&quot;color: rgba(0, 0, 0, 0); font-family: monospace; font-size: 0px; text-align: start;&quot;&gt;%3CmxGraphModel%3E%3Croot%3E%3CmxCell%20id%3D%220%22%2F%3E%3CmxCell%20id%3D%221%22%20parent%3D%220%22%2F%3E%3CmxCell%20id%3D%222%22%20value%3D%22A%22%20style%3D%22text%3Bhtml%3D1%3BstrokeColor%3Dnone%3BfillColor%3Dnone%3Balign%3Dcenter%3BverticalAlign%3Dmiddle%3BwhiteSpace%3Dwrap%3Brounded%3D0%3B%22%20vertex%3D%221%22%20parent%3D%221%22%3E%3CmxGeometry%20x%3D%22110%22%20y%3D%22205%22%20width%3D%2260%22%20height%3D%2230%22%20as%3D%22geometry%22%2F%3E%3C%2FmxCell%3E%3C%2Froot%3E%3C%2FmxGraphModel%3E&lt;/span&gt;" style="text;html=1;strokeColor=none;fillColor=none;align=center;verticalAlign=middle;whiteSpace=wrap;rounded=0;" vertex="1" parent="1">
          <mxGeometry x="350" y="801" width="60" height="30" as="geometry" />
        </mxCell>
        <mxCell id="u8Ia12efMhGryAWkAICv-76" value="C" style="text;html=1;strokeColor=none;fillColor=none;align=center;verticalAlign=middle;whiteSpace=wrap;rounded=0;" vertex="1" parent="1">
          <mxGeometry x="220" y="942" width="60" height="30" as="geometry" />
        </mxCell>
        <mxCell id="u8Ia12efMhGryAWkAICv-77" value="D" style="text;html=1;strokeColor=none;fillColor=none;align=center;verticalAlign=middle;whiteSpace=wrap;rounded=0;" vertex="1" parent="1">
          <mxGeometry x="350" y="942" width="60" height="30" as="geometry" />
        </mxCell>
        <mxCell id="u8Ia12efMhGryAWkAICv-78" value="" style="ellipse;whiteSpace=wrap;html=1;aspect=fixed;fillColor=#fff2cc;strokeColor=#d6b656;" vertex="1" parent="1">
          <mxGeometry x="295" y="867" width="40" height="40" as="geometry" />
        </mxCell>
        <mxCell id="u8Ia12efMhGryAWkAICv-79" value="A" style="text;html=1;strokeColor=none;fillColor=none;align=center;verticalAlign=middle;whiteSpace=wrap;rounded=0;" vertex="1" parent="1">
          <mxGeometry x="285" y="872" width="60" height="30" as="geometry" />
        </mxCell>
      </root>
    </mxGraphModel>
  </diagram>
</mxfile>
